<?xml version="1.0" encoding="utf-8"?>
<!-- Generator: Adobe Illustrator 23.0.4, SVG Export Plug-In . SVG Version: 6.00 Build 0)  -->
<svg version="1.1" id="Layer_1" xmlns="http://www.w3.org/2000/svg" xmlns:xlink="http://www.w3.org/1999/xlink"  width="32" height="32"
	 viewBox="0 0 249 217" style="enable-background:new 0 0 249 217;" xml:space="preserve">
<style type="text/css">
	.st0{fill:#EEB733;}
</style>
<g>
	<path class="st0" d="M128.2,3.07c0,0-3.56-6.17-7.12,0L92.83,52c0,0-3.56,6.17,0,12.34l31.86,55.19l12.59,21.82
		c0,0,3.56,6.17,10.69,6.17h56.5c0,0,7.12,0,3.56-6.17L128.2,3.07z"/>
	<path class="st0" d="M88.13,71.97c0,0-3.56-6.17-7.12,0L1.22,210.16c0,0-3.56,6.17,3.56,6.17h42.46h14.04c0,0,7.12,0,10.68-6.17
		l31.81-55.1l12.6-21.81c0,0,3.56-6.17,0-12.34L88.13,71.97z"/>
	<path class="st0" d="M219.24,161.23c0,0-3.56-6.17-10.69-6.17h-63.62h-25.19c0,0-7.13,0-10.69,6.17L80.8,210.16
		c0,0-3.56,6.17,3.56,6.17h159.57c0,0,7.12,0,3.56-6.17L219.24,161.23z"/>
</g>
</svg>
